<svg width="512" height="512" viewBox="0 0 512 512" fill="none" xmlns="http://www.w3.org/2000/svg">
  <!-- Background circle with gradient -->
  <circle cx="256" cy="256" r="256" fill="url(#gradient)" />
  
  <!-- Bot icon -->
  <g transform="translate(128, 128)">
    <!-- Bot head -->
    <rect x="64" y="32" width="128" height="96" rx="24" fill="white" opacity="0.9"/>
    
    <!-- Bot eyes -->
    <circle cx="96" cy="72" r="8" fill="#0672EF"/>
    <circle cx="160" cy="72" r="8" fill="#0672EF"/>
    
    <!-- Bot body -->
    <rect x="48" y="128" width="160" height="128" rx="32" fill="white" opacity="0.9"/>
    
    <!-- Bot arms -->
    <rect x="16" y="160" width="32" height="64" rx="16" fill="white" opacity="0.9"/>
    <rect x="208" y="160" width="32" height="64" rx="16" fill="white" opacity="0.9"/>
    
    <!-- Bot antenna -->
    <circle cx="128" cy="16" r="8" fill="#008F5C"/>
    <rect x="126" y="16" width="4" height="16" fill="#008F5C"/>
    
    <!-- Lab beaker overlay -->
    <g transform="translate(180, 40)" opacity="0.8">
      <path d="M8 32 L24 32 L20 48 L12 48 Z" fill="#00BCF5"/>
      <rect x="14" y="28" width="4" height="8" fill="#00BCF5"/>
      <circle cx="16" cy="40" r="2" fill="white"/>
    </g>
  </g>
  
  <!-- Cisco colors gradient -->
  <defs>
    <linearGradient id="gradient" x1="0%" y1="0%" x2="100%" y2="100%">
      <stop offset="0%" style="stop-color:#0672EF;stop-opacity:1" />
      <stop offset="50%" style="stop-color:#008F5C;stop-opacity:1" />
      <stop offset="100%" style="stop-color:#00BCF5;stop-opacity:1" />
    </linearGradient>
  </defs>
</svg>
